<svg width="55" height="55" viewBox="0 0 55 55" fill="none" xmlns="http://www.w3.org/2000/svg">
<circle cx="27.5" cy="27.5" r="27.5" fill="white"/>
<path d="M32.0212 27.5004C32.0212 29.9969 29.9976 32.0205 27.5011 32.0205C25.0047 32.0205 22.981 29.9969 22.981 27.5004C22.981 25.004 25.0047 22.9803 27.5011 22.9803C29.9976 22.9803 32.0212 25.004 32.0212 27.5004Z" fill="#5432E2"/>
<path d="M38.0711 19.5024C37.8538 18.9136 37.5072 18.3807 37.0568 17.9432C36.6193 17.4928 36.0867 17.1461 35.4976 16.9288C35.0198 16.7433 34.302 16.5224 32.9799 16.4622C31.5497 16.397 31.1209 16.3829 27.5002 16.3829C23.8791 16.3829 23.4503 16.3966 22.0205 16.4618C20.6984 16.5224 19.9803 16.7433 19.5028 16.9288C18.9137 17.1461 18.3807 17.4928 17.9436 17.9432C17.4932 18.3807 17.1466 18.9132 16.9289 19.5024C16.7433 19.9802 16.5224 20.6984 16.4623 22.0204C16.397 23.4503 16.383 23.8791 16.383 27.5001C16.383 31.1208 16.397 31.5496 16.4623 32.9798C16.5224 34.3019 16.7433 35.0197 16.9289 35.4975C17.1466 36.0867 17.4928 36.6193 17.9433 37.0567C18.3807 37.5071 18.9133 37.8538 19.5025 38.0711C19.9803 38.257 20.6984 38.4779 22.0205 38.5381C23.4503 38.6033 23.8788 38.617 27.4998 38.617C31.1213 38.617 31.5501 38.6033 32.9795 38.5381C34.3016 38.4779 35.0198 38.257 35.4976 38.0711C36.6802 37.6149 37.6149 36.6802 38.0711 35.4975C38.2567 35.0197 38.4776 34.3019 38.5381 32.9798C38.6033 31.5496 38.617 31.1208 38.617 27.5001C38.617 23.8791 38.6033 23.4503 38.5381 22.0204C38.4779 20.6984 38.2571 19.9802 38.0711 19.5024ZM27.5002 34.463C23.6543 34.463 20.5366 31.3457 20.5366 27.4998C20.5366 23.6539 23.6543 20.5366 27.5002 20.5366C31.3457 20.5366 34.4634 23.6539 34.4634 27.4998C34.4634 31.3457 31.3457 34.463 27.5002 34.463ZM34.7387 21.8886C33.84 21.8886 33.1114 21.16 33.1114 20.2613C33.1114 19.3626 33.84 18.634 34.7387 18.634C35.6374 18.634 36.366 19.3626 36.366 20.2613C36.3656 21.16 35.6374 21.8886 34.7387 21.8886Z" fill="#5432E2"/>
</svg>
