<svg width="55" height="55" viewBox="0 0 55 55" fill="none" xmlns="http://www.w3.org/2000/svg">
<circle cx="27.5" cy="27.5" r="27.5" fill="white"/>
<path fill-rule="evenodd" clip-rule="evenodd" d="M18.0363 33.8571L16.383 39.8943L22.5606 38.2744C24.2626 39.2021 26.179 39.6915 28.1292 39.6923H28.1344C34.5567 39.6923 39.7846 34.4657 39.7873 28.0418C39.7884 24.9289 38.5774 22.0018 36.3771 19.7997C34.1773 17.5976 31.2514 16.3843 28.1338 16.3829C21.7108 16.3829 16.4831 21.609 16.4806 28.0327C16.48 30.0857 17.0162 32.0903 18.0363 33.8571ZM24.3672 22.5914C24.5928 22.6005 24.8424 22.611 25.0794 23.1356C25.2407 23.493 25.5119 24.158 25.7287 24.6898C25.8899 25.0851 26.0212 25.4069 26.0549 25.4741C26.1339 25.6318 26.1867 25.8156 26.0812 26.026C25.9757 26.236 25.5463 26.7932 25.2904 27.1031C25.2767 27.1197 25.2627 27.136 25.2487 27.1524C25.1168 27.3066 24.9845 27.4611 25.1513 27.7459C25.336 28.0613 25.9713 29.0926 26.912 29.9275C27.9228 30.8248 28.8011 31.2043 29.2468 31.3968C29.3341 31.4346 29.4049 31.4652 29.4568 31.4911C29.7732 31.6488 29.9579 31.6224 30.1426 31.4118C30.3272 31.2018 30.9332 30.4924 31.1444 30.1774C31.3553 29.862 31.5663 29.9143 31.8564 30.0195C32.1466 30.1245 33.7024 30.8868 34.0188 31.0443C34.0805 31.075 34.1381 31.1027 34.1915 31.1284C34.4124 31.2345 34.5616 31.3062 34.6254 31.4118C34.7046 31.5438 34.7046 32.1741 34.4407 32.9097C34.177 33.6453 32.8851 34.3549 32.3048 34.4074C32.2489 34.4125 32.1934 34.419 32.1363 34.4257C31.6001 34.4885 30.9233 34.5677 28.5073 33.6192C25.5339 32.4518 23.5735 29.5586 23.1692 28.9619C23.1361 28.9131 23.1134 28.8796 23.1015 28.8637L23.0983 28.8595C22.9287 28.634 21.8091 27.1456 21.8091 25.6054C21.8091 24.1545 22.5257 23.3939 22.8553 23.0441C22.8778 23.0202 22.8985 22.9982 22.917 22.9781C23.2069 22.6629 23.5498 22.5839 23.7608 22.5839L23.7902 22.5839C23.9911 22.5838 24.1913 22.5838 24.3672 22.5914Z" fill="#5432E2"/>
</svg>
