<svg width="30" height="15" viewBox="0 0 30 15" fill="none" xmlns="http://www.w3.org/2000/svg">
<path d="M22.7933 0C20.2793 0 18.7151 0.726257 16.9274 2.7933L16.7039 3.01676L18.8268 5.13966L19.0503 4.9162C20.1117 3.74302 21.3408 3.01676 22.7933 3.01676C24.8045 3.01676 26.7598 4.63687 26.7598 7.26257C26.7598 9.8324 24.9721 11.5084 22.7933 11.5084C22.1229 11.5084 21.4525 11.3408 20.8939 11.0615L20.6704 10.9497C20.5587 10.8939 20.5028 10.838 20.3911 10.7263L16.8156 7.15084L14.7486 4.97207L11.5642 1.84358C10.2793 0.726257 8.88268 0 7.2067 0C3.18436 0 0 3.18436 0 7.2067C0 11.3408 3.18436 14.4134 7.2067 14.4134C9.49721 14.4134 11.4525 13.352 12.7933 11.7877L13.0168 11.5642L10.9497 9.4972L10.7263 9.72067C9.49721 10.6704 8.65922 11.4525 7.2067 11.4525C5.0838 11.4525 3.24023 9.8324 3.24023 7.2067C3.24023 4.63687 4.86034 2.96089 6.98324 2.96089C7.98883 2.96089 9.16201 3.63128 9.88827 4.35754C10.4469 3.46369 11.0056 2.68156 11.6201 1.78771L11.3408 2.17877L9.8324 4.41341L17.486 12.1229L18.6034 13.0168C19.7765 13.9106 21.1732 14.4693 22.7933 14.4693C26.7598 14.4693 30 11.3408 30 7.26257C30 3.07262 26.8156 0 22.7933 0Z" fill="#5432E2"/>
</svg>
