<svg width="142" height="25" viewBox="0 0 142 25" fill="none" xmlns="http://www.w3.org/2000/svg">
<g clip-path="url(#clip0)">
<path d="M101.915 7.18509C101.915 3.40346 105.413 0 111.085 0C115.056 0 118.27 1.60719 120.35 4.34887L116.852 7.75233C115.529 6.23968 113.543 4.91611 110.896 4.91611C108.438 4.91611 107.398 5.76698 107.398 7.18509C107.398 10.7776 120.539 8.69773 120.539 17.3009C120.539 21.5553 116.663 24.7696 111.558 24.7696C105.885 24.7696 102.198 22.028 100.591 19.0027L104.373 15.7883C105.885 18.2463 108.438 19.8535 111.369 19.8535C114.016 19.8535 115.056 18.8136 115.056 17.6791C115.056 13.5193 101.915 15.7883 101.915 7.18509ZM22.1225 19.759C20.0426 22.8788 16.261 24.5806 12.1012 24.5806C4.72703 24.5806 0 19.6644 0 12.3848C0 5.5779 4.91611 0.0945406 12.1957 0.0945406C16.5446 0.0945406 20.0426 1.89081 21.7443 4.53795L18.2463 7.75233C16.8282 5.95606 14.5593 5.10519 12.5739 5.10519C8.31957 5.10519 5.38881 7.84687 5.38881 12.2903C5.38881 16.5446 8.41411 19.4754 12.4794 19.4754C15.1265 19.4754 17.3955 18.3409 19.0027 16.3555L22.1225 19.759ZM123.659 0.567244H141.716V5.48336H128.859V9.83222H140.866V14.5593H128.859V19.2863H142V24.2024H123.659V0.567244ZM40.3688 14.7483H29.8748V24.2024H24.6751V0.567244H29.8748V9.83222H40.3688V0.567244H45.5686V24.2024H40.3688V14.7483Z" fill="#313131"/>
<path d="M87.3538 0.0947266C83.0995 0.0947266 80.4524 1.32375 77.4271 4.82176L77.0489 5.19992L80.6414 8.79246L81.0196 8.4143C82.8159 6.42895 84.8958 5.19992 87.3538 5.19992C90.7573 5.19992 94.0662 7.9416 94.0662 12.385C94.0662 16.7339 91.0409 19.5701 87.3538 19.5701C86.2193 19.5701 85.0849 19.2865 84.1394 18.8138L83.7613 18.6247C83.5722 18.5301 83.4777 18.4356 83.2886 18.2465L77.238 12.1959L73.74 8.50884L68.3512 3.21457C66.1767 1.32375 63.8132 0.0947266 60.977 0.0947266C54.1701 0.0947266 48.7812 5.48354 48.7812 12.2905C48.7812 19.2865 54.1701 24.4862 60.977 24.4862C64.8532 24.4862 68.1621 22.6899 70.4311 20.0428L70.8092 19.6646L67.3112 16.1666L66.9331 16.5448C64.8532 18.152 63.435 19.4756 60.977 19.4756C57.3844 19.4756 54.2646 16.7339 54.2646 12.2905C54.2646 7.9416 57.0063 5.10538 60.5988 5.10538C62.3006 5.10538 64.2859 6.23987 65.5149 7.46889C66.4604 5.95624 67.4058 4.63268 68.4457 3.12003L67.973 3.78181L65.4204 7.56343L78.3725 20.61L80.2633 22.1227C82.2486 23.6353 84.6121 24.5807 87.3538 24.5807C94.0662 24.5807 99.5496 19.2865 99.5496 12.385C99.5496 5.29446 94.1607 0.0947266 87.3538 0.0947266Z" fill="#5432E2"/>
</g>
<defs>
<clipPath id="clip0">
<rect width="142" height="24.6751" fill="white"/>
</clipPath>
</defs>
</svg>
