<svg width="19" height="29" viewBox="0 0 19 29" fill="none" xmlns="http://www.w3.org/2000/svg">
<path fill-rule="evenodd" clip-rule="evenodd" d="M9.50268 28.0625C9.24575 28.0625 8.99935 27.9604 8.81767 27.7788C8.636 27.5971 8.53393 27.3507 8.53393 27.0938L8.53393 4.24481L2.43856 10.3421C2.25665 10.524 2.00993 10.6262 1.75268 10.6262C1.49543 10.6262 1.24871 10.524 1.06681 10.3421C0.884899 10.1602 0.782708 9.9135 0.782708 9.65625C0.782707 9.399 0.884899 9.15228 1.06681 8.97037L8.81681 1.22037C8.90679 1.13016 9.0137 1.05858 9.13139 1.00974C9.24908 0.960906 9.37526 0.935767 9.50268 0.935767C9.6301 0.935767 9.75628 0.960906 9.87397 1.00974C9.99166 1.05858 10.0986 1.13016 10.1886 1.22037L17.9386 8.97037C18.1205 9.15228 18.2227 9.399 18.2227 9.65625C18.2227 9.9135 18.1205 10.1602 17.9386 10.3421C17.7567 10.524 17.5099 10.6262 17.2527 10.6262C16.9954 10.6262 16.7487 10.524 16.5668 10.3421L10.4714 4.24481L10.4714 27.0938C10.4714 27.3507 10.3694 27.5971 10.1877 27.7788C10.006 27.9604 9.75961 28.0625 9.50268 28.0625Z" fill="white"/>
</svg>
