<svg width="29" height="19" viewBox="0 0 29 19" fill="none" xmlns="http://www.w3.org/2000/svg">
<path fill-rule="evenodd" clip-rule="evenodd" d="M0.9375 9.50122C0.9375 9.24429 1.03956 8.99788 1.22124 8.81621C1.40292 8.63453 1.64932 8.53247 1.90625 8.53247L24.7552 8.53247L18.6579 2.43709C18.476 2.25519 18.3738 2.00847 18.3738 1.75122C18.3738 1.49396 18.476 1.24725 18.6579 1.06534C18.8398 0.883435 19.0865 0.781243 19.3438 0.781243C19.601 0.781243 19.8477 0.883435 20.0296 1.06534L27.7796 8.81534C27.8698 8.90533 27.9414 9.01223 27.9903 9.12993C28.0391 9.24762 28.0642 9.37379 28.0642 9.50122C28.0642 9.62864 28.0391 9.75481 27.9903 9.87251C27.9414 9.9902 27.8698 10.0971 27.7796 10.1871L20.0296 17.9371C19.8477 18.119 19.601 18.2212 19.3438 18.2212C19.0865 18.2212 18.8398 18.119 18.6579 17.9371C18.476 17.7552 18.3738 17.5085 18.3738 17.2512C18.3738 16.994 18.476 16.7472 18.6579 16.5653L24.7552 10.47L1.90625 10.47C1.64932 10.47 1.40292 10.3679 1.22124 10.1862C1.03956 10.0045 0.9375 9.75815 0.9375 9.50122Z" fill="#313131"/>
</svg>
