<svg width="56" height="46" viewBox="0 0 56 46" fill="none" xmlns="http://www.w3.org/2000/svg">
<path d="M54.2714 21.1631L54.2718 21.1635C54.7066 21.5976 54.9458 22.177 54.9444 22.8012L54.9444 22.8047C54.9461 23.4251 54.7072 24.0044 54.2719 24.4402C54.2718 24.4402 54.2717 24.4403 54.2717 24.4404L34.4752 44.2369C34.0405 44.6715 33.464 44.9107 32.8444 44.9107C32.2216 44.9107 31.6462 44.6738 31.2133 44.2409L31.2125 44.2402L29.4159 42.4488C29.4157 42.4486 29.4154 42.4484 29.4152 42.4482C28.9802 42.0128 28.7434 41.4454 28.7434 40.8284C28.7434 40.2131 28.9783 39.6555 29.4153 39.2178C29.4155 39.2176 29.4158 39.2173 29.4161 39.217L41.0947 27.5789L42.2843 26.3935H40.6049L3.7818 26.3935C2.54562 26.3935 1.51421 25.3144 1.51421 24.007L1.51421 21.4653C1.51421 20.1974 2.50706 19.2093 3.7818 19.2093L40.4739 19.2093H42.1465L40.9651 18.0253L29.416 6.45076L29.4152 6.45002C28.9861 6.0212 28.7429 5.42107 28.7429 4.79453C28.7429 4.17371 28.9818 3.59707 29.4152 3.16399L29.4155 3.16373L31.2126 1.36615C31.6468 0.932359 32.2227 0.693898 32.844 0.693898C33.4646 0.693898 34.0408 0.932071 34.4747 1.36595L54.2714 21.1631Z" stroke="#5432E2" stroke-width="1.3878"/>
</svg>
