<svg width="55" height="46" viewBox="0 0 55 46" fill="none" xmlns="http://www.w3.org/2000/svg">
<path d="M1.367 24.4414L1.36661 24.441C0.931793 24.0069 0.692665 23.4275 0.694054 22.8033L0.694046 22.7998C0.692326 22.1793 0.931267 21.5999 1.36674 21.1641L21.1633 1.36762C21.5979 0.932983 22.1744 0.693779 22.794 0.693779C23.4168 0.693779 23.9922 0.930656 24.4252 1.36361L24.4259 1.36434L26.2226 3.15565C26.2226 3.15568 26.2226 3.15571 26.2226 3.15574C26.658 3.59116 26.8951 4.15882 26.8951 4.77613C26.8951 5.3916 26.66 5.9493 26.2227 6.38707C26.2226 6.3872 26.2225 6.38732 26.2224 6.38745L14.5437 18.0255L13.3542 19.211H15.0335L51.8566 19.211C53.0928 19.211 54.1242 20.2901 54.1242 21.5975V24.1392C54.1242 25.4071 53.1314 26.3952 51.8566 26.3952L15.1645 26.3952H13.4919L14.6733 27.5792L26.2225 39.1537L26.2232 39.1545C26.6524 39.5833 26.8955 40.1834 26.8955 40.81C26.8955 41.4308 26.6566 42.0074 26.2232 42.4405L26.2229 42.4408L24.4258 44.2383C23.9917 44.6721 23.4157 44.9106 22.7944 44.9106C22.1738 44.9106 21.5976 44.6724 21.1637 44.2385L1.367 24.4414Z" stroke="#5432E2" stroke-width="1.3878"/>
</svg>
